<svg xmlns="http://www.w3.org/2000/svg" width="412" height="20" viewBox="0 0 412 20" fill="none">
    <path d="M412.893 15.8799C412.194 16.1031 412.845 16.797 411.384 17.1901C409.843 17.6026 404.426 18.0684 402.123 18.1461C377.914 18.9759 348.94 17.4861 324.175 18.1509L259.92 17.1561C259.555 16.3118 263.526 16.7 265.448 16.6757C273.629 16.5738 282.763 16.5787 290.944 16.6563C305.605 16.7922 322.205 17.554 336.867 17.6705C358.344 17.8403 379.947 17.7045 401.281 17.1561L396.515 16.1807L399.692 14.9773L396.531 14.7346C395.689 13.473 397.373 13.9922 399.708 13.5361C396.849 12.5413 395.785 11.9201 399.692 11.0952L396.897 10.7797L398.104 9.8917C385.126 9.90626 372.1 9.86259 359.106 9.86744C285.034 9.88685 209.628 6.59674 135.207 8.92117C98.9097 10.0567 63.1366 13.439 26.331 12.0608L23.2017 13.2788L33.4634 13.7884L123.277 10.8622L43.0579 14.2494L23.2176 13.769L21.6608 14.9821C21.7085 17.03 59.3401 14.3901 63.8355 14.3125C64.6457 14.2979 63.7879 15.1568 66.806 15.2685C72.9218 15.4917 91.8249 14.9482 95.5261 13.2837L96.2886 14.2445C120.783 13.2206 145.31 12.2064 170.09 11.7988C171.949 11.7697 178.907 11.4591 178.891 12.2986C158.256 13.0702 137.05 12.9877 116.336 13.8175C91.5549 14.8074 66.679 16.9814 41.4218 17.1756C34.1623 17.2289 23.0269 15.283 18.468 18.1218L40.7229 19.0923L39.1185 18.1315H48.6495L43.8999 19.0923C46.8068 19.0632 49.7773 19.1748 52.7002 19.1166C88.7274 18.4324 124.723 16.2535 160.671 15.7052C180.495 15.4043 204.323 15.4528 224.211 15.7003C226.149 15.7246 230.12 15.3364 229.739 16.1807C175.142 14.9336 122.181 18.2577 68.5057 19.5825C50.3492 20.0289 11.7009 20.9509 -2.32553 16.9232C-3.97757 16.4476 -7.88529 13.2497 -8.45715 12.517C-11.2053 8.95027 -10.3316 5.15551 -5.43899 1.83144C4.36206 2.05466 13.067 3.7822 23.9642 4.06851C67.918 5.23314 116.034 0.749277 160.559 0.147547C219.509 -0.64829 278.188 2.00612 336.883 2.61271C359.186 2.84078 389.272 1.7101 410.097 2.56902C422.773 3.09311 423.981 10.8768 419.93 13.866C418.103 15.2054 415.228 15.1229 412.877 15.8702L412.893 15.8799ZM396.325 6.0678C306.876 6.78114 216.475 1.59364 127.296 4.54406C92.9687 5.67958 59.0224 8.75131 24.0436 7.93606C19.3575 10.3284 39.3726 10.4498 44.7259 10.3867C51.9694 10.3042 59.8802 9.38702 67.505 9.19292C124.786 7.72256 182.306 6.12603 240.143 6.94613C283.001 7.55271 332.88 9.87715 375.182 8.93088C379.582 8.83383 385.825 6.94126 387.81 8.90174C390.352 7.81474 394.085 7.83903 398.152 7.92638L396.341 6.05809L396.325 6.0678Z"
          fill="white"/>
</svg>