<?xml version="1.0" encoding="UTF-8"?>
<svg id="icon" xmlns="http://www.w3.org/2000/svg" version="1.1" viewBox="0 0 84 75">
  <!-- Generator: Adobe Illustrator 29.4.0, SVG Export Plug-In . SVG Version: 2.1.0 Build 152)  -->
  <path d="M47.7,58.1c.2,0,.5,0,.6,0,1.1-.4,2.7-4.2,3.5-5.4,3.4-4.8,13.3-9.3,17.1-2.8-.6.7-1.3-.2-2.1-.5-3.5-1.1-9.1,1.9-11.3,4.6-2.5,3-3.6,10.1-8.9,7-2.1-1.2-2.6-3.2-5-4.1-5.3-1.9-7.6,4.6-11,7.4.5-6.4,6.8-14.6,13.6-9.5.9.7,2.5,2.7,3.4,3.1Z" style="fill: #1d1d1b;"/>
  <path d="M45.1,39.4c2,.4,3.3,1.9,3.3,4h.4c.7,2.3-4,4.6-5.8,3.8l.3-.2v-.3c-.8.3-.6-.5-1-.2l.3-.8h-.4s0-.7,0-.7l-.6.5.9-1.4c-.4-.4-1-.5-1.5-.2l1.1-1.3h-.5c0-.1.3-.9.3-.9h-.8c.8-.5,1.6-1.7,2.7-1.3v-.4c0,0,.8,0,.8,0l-.2-.5c.3-.2.7,0,1,.1h0Z" style="fill: #1d1d1b;"/>
  <path d="M35.2,47.6l.3-.7-.7-.3c2.1-3.1,5.2,1.7,1.3,1.8-.4-.2,0-1.1-.9-.8h0Z" style="fill: #1d1d1b;"/>
  <path d="M50.8,40.1v-.4c3.3-3.4,4.6,3.7.3,1.2l.3-.7h-.6Z" style="fill: #1d1d1b;"/>
  <path d="M60.3,23.8c.4-3.1,1.5-5.9,2.1-8.9l-1.4,1.4c.6-2,1-8.8-1.8-8.9-1.5,0-7,2.4-8.4,3.4-.5.4-.7.9-1.3,1.3-.9.6-2,.5-2.7.9-.6.4-2.6,3.6-3.3,4.4-2,2.3-4.6,4.5-6.2,7.3-.9,1.5-1.6,4.1-2.5,5.8-.4.8-1.3,1.4-1.6,2.3-.4,1.1,0,2.2-.6,3.4-.4,1-1.6,2-1.8,2.8-.6,1.7-1,4.9-1.5,7-.9,3.4-.2,5.7-4.7,6.3-1.5.2-5.1-1.1-6.4-2-1.6-1-2.3-2.1-2.7-3.9-1.2-4.5,1.6-10.4,2.6-15,.1-.6.9-3.7.4-3.9-2.5,1.7-3.8,4.6-5.9,6.7-2.4,2.4-2.5,2.4-5.6,1.3-1.7-.6-3.1-1.2-4-2.7-1.4-2.2-1.3-4.6-.3-7,.9-.4,3.8,2.2,4,3.2,2.4-2.6,6.2-5.8,10.1-4.5.7.2,1.2.7,1.8,1,2.4,1,5.1,1.5,7,3.5l6.6-8.5c1.6-.5,2.3-2,3.4-3.2,2-2.2,3.6-4,6.1-5.7,2.4-1.7,5.2-3.4,7.9-4.8l-2.4.4,3.1-1.5-.4,1c2.1-1.2,5.9-2.5,8.3-1.8,3.2,1,7.5,2.9,9.8,5.4,2.6,2.8,1.6,6.1,1.6,9.5h.6c0,0,0,.5,0,.5-.3.9-.2,2.3-.6,3.2-.7,1.5-1.6,2-2.1,4.1-.5,2-.6,4-.6,6.1-2.5,1.1-5,.9-7.6.1,0-1.3-.1-2.6,0-3.9,0-2,.8-4.1.4-6,0,0,.6,0,.8,0-.1,1.2-.3,2.7-.4,3.9-.2,1.8-.9,5.5,1.4,5.8-1-2.3-.9-4.8-.6-7.3.1-1.2.9-3.3.9-4.3,0-.1,0-.4-.3-.3-.3.4-.6,1.9-1,2.1h0Z" style="fill: #1d1d1b;"/>
</svg>