<svg xmlns="http://www.w3.org/2000/svg" width="28" height="28" viewBox="0 0 28 28" fill="none">
    <path d="M1.29343 19.9273L2.05041 19.1719C1.61613 18.5581 1.58803 19.8258 1.11171 18.7838L5.17996 16.4194C5.39655 16.3069 5.72629 16.4254 5.94512 16.3147C10.9322 13.8099 15.7979 11.0538 20.7038 8.38364C20.9595 8.47941 21.4057 8.73983 21.4703 9.20501C21.9083 9.56069 23.5027 8.12523 23.8416 7.83596C24.1219 7.59611 25.3377 5.58965 26.0124 6.74178C26.1496 7.22743 25.9681 7.21054 25.8255 7.33344C20.8414 11.5998 16.0464 15.8568 10.2535 18.8175C8.43982 19.7429 6.57364 20.658 4.43125 20.915C3.73236 21.0002 3.13768 21.3155 2.23395 20.9322L2.01155 20.1337L1.29387 19.9239L1.29343 19.9273Z" fill="white"/>
    <path d="M15.3644 0L15.6598 1.03325C16.4619 0.964021 15.3007 0.305843 16.5227 0.414334L16.5372 5.11975C16.5256 5.36359 16.2389 5.58988 16.2244 5.83476C15.8769 11.406 15.8277 16.998 15.6771 22.5816C15.4513 22.7552 14.9706 23.0115 14.5043 22.8348C13.9397 23.0363 14.4175 25.1348 14.5043 25.5729C14.5767 25.9356 15.7872 27.9917 14.3567 28C13.8325 27.876 13.9455 27.7272 13.9078 27.5423C12.6192 21.0927 11.2379 14.8116 11.5941 8.31455C11.707 6.28112 11.8576 4.20739 12.7669 2.22355C13.0623 1.57571 13.0883 0.903061 13.9281 0.312043L14.7881 0.518693L15.3673 0.00206852L15.3644 0Z" fill="white"/>
    <path d="M25.5422 22.0727L24.5095 21.7949C24.1951 22.4778 25.307 21.8683 24.6428 22.8018L20.561 20.4608C20.3553 20.3295 20.2931 19.9847 20.0877 19.8505C15.425 16.784 10.6053 13.9483 5.83992 11.0347C5.795 10.7654 5.79741 10.2487 6.16799 9.9602C6.25702 9.40303 4.21666 8.73997 3.79672 8.59114C3.44885 8.46832 1.1033 8.41862 1.76371 7.25822C2.11569 6.89656 2.19183 7.06224 2.36957 7.12429C8.55639 9.30748 14.6406 11.3315 20.101 14.868C21.8093 15.976 23.5349 17.1346 24.8287 18.8614C25.2519 19.4241 25.8223 19.7815 25.9422 20.7558L25.3619 21.3476L25.539 22.0741L25.5422 22.0727Z" fill="white"/>
</svg>