<svg xmlns="http://www.w3.org/2000/svg" version="1.1" xmlns:xlink="http://www.w3.org/1999/xlink" width="1000" height="1000"><style>
    #light-icon {
      display: inline;
    }
    #dark-icon {
      display: none;
    }

    @media (prefers-color-scheme: dark) {
      #light-icon {
        display: none;
      }
      #dark-icon {
        display: inline;
      }
    }
  </style><g id="light-icon"><svg xmlns="http://www.w3.org/2000/svg" version="1.1" xmlns:xlink="http://www.w3.org/1999/xlink" width="1000" height="1000"><g clip-path="url(#SvgjsClipPath1070)"><rect width="1000" height="1000" fill="#000000"></rect><g transform="matrix(8.333333333333334,0,0,8.333333333333334,150,187.5)"><svg xmlns="http://www.w3.org/2000/svg" version="1.1" xmlns:xlink="http://www.w3.org/1999/xlink" width="84" height="75"><svg id="icon" xmlns="http://www.w3.org/2000/svg" preserveAspectRatio="none" viewBox="0 0 84 75" fill="none">
    <path d="M47.6743 58.0627C47.8696 58.13 48.1255 58.1591 48.3184 58.0864C49.4594 57.6564 51.0222 53.8581 51.8457 52.7053C55.2303 47.9489 65.1333 43.3705 68.9737 49.9143C68.418 50.6575 67.642 49.6866 66.8587 49.4401C63.3327 48.3283 57.807 51.3818 55.5592 54.0855C53.0798 57.0675 51.98 64.2226 46.6714 61.1215C44.6137 59.9189 44.0796 57.9388 41.6356 57.061C36.3666 55.1751 34.0641 61.6977 30.6751 64.4897C31.1456 58.1375 37.5181 49.8404 44.2401 55.01C45.1661 55.7221 46.7333 57.7418 47.6743 58.0627Z" fill="white"></path>
    <path d="M45.0971 39.3856C47.0989 39.7695 48.3685 41.3058 48.4251 43.3542L48.8592 43.385C49.5986 45.6786 44.8166 47.9138 43.0322 47.188L43.3405 46.9586L43.2061 46.6119C42.5472 46.8852 42.7767 46.088 42.2905 46.3629L42.5656 45.537L42.1276 45.5017L42.0681 44.8197L41.4372 45.278L42.309 43.8992C41.8626 43.4947 41.3324 43.3883 40.7959 43.6959L41.9155 42.4233L41.4602 42.3049L41.7371 41.4783L40.8932 41.4111C41.7149 40.949 42.5077 39.7639 43.5478 40.1283L43.4914 39.7417L44.3354 39.809L44.1209 39.2799C44.4518 39.0864 44.7823 39.3311 45.095 39.3906L45.0971 39.3856Z" fill="white"></path>
    <path d="M35.2145 47.5897L35.5309 46.8556L34.7915 46.5412C36.8718 43.4731 39.9853 48.2 36.1247 48.3506C35.6874 48.1758 36.0828 47.2828 35.2162 47.589L35.2145 47.5897Z" fill="white"></path>
    <path d="M50.7843 40.0501L50.7465 39.6438C54.0457 36.2903 55.4187 43.3786 51.1117 40.8426L51.4148 40.1057L50.7843 40.0501Z" fill="white"></path>
    <path d="M60.2754 23.8448C60.647 20.7918 61.7747 17.9829 62.3369 14.96L60.932 16.3793C61.5791 14.3835 61.9198 7.61351 59.0837 7.4588C57.545 7.37387 52.0598 9.85992 50.6988 10.8633C50.2098 11.2225 49.9658 11.8014 49.4201 12.1326C48.5059 12.6867 47.3787 12.6524 46.7401 13.0129C46.1015 13.3734 44.1834 16.5874 43.4267 17.4532C41.4245 19.747 38.8393 22.0005 37.2537 24.707C36.3511 26.2474 35.6447 28.8516 34.785 30.5045C34.3788 31.2846 33.5049 31.9381 33.1713 32.8413C32.7778 33.9042 33.0848 35.0248 32.5801 36.2119C32.1697 37.1772 31.0155 38.2154 30.742 39.0575C30.1818 40.7922 29.7561 43.9631 29.2165 46.0565C28.3413 49.4604 29.064 51.7394 24.4986 52.3365C22.9975 52.5328 19.4078 51.19 18.0931 50.3508C16.5377 49.358 15.8283 48.2509 15.3543 46.4526C14.1703 41.9664 16.9664 36.0052 17.9883 31.4746C18.1236 30.872 18.917 27.7695 18.427 27.539C15.9595 29.2789 14.6198 32.0891 12.541 34.2079C10.1635 36.6312 10.0845 36.6322 6.90383 35.4596C5.23566 34.8456 3.79213 34.2337 2.86898 32.753C1.48179 30.5259 1.52081 28.1272 2.55895 25.7753C3.4577 25.3997 6.37213 27.9281 6.54333 28.9654C8.98788 26.3511 12.7305 23.1372 16.6192 24.4491C17.3022 24.6804 17.7917 25.1822 18.4168 25.4313C20.8659 26.4064 23.5664 26.9464 25.3875 28.9581L32.0207 20.4844C33.654 20.0199 34.326 18.477 35.4233 17.2982C37.4541 15.117 39.0473 13.3306 41.4808 11.6045C43.9142 9.87833 46.7216 8.20109 49.3935 6.79052L47.0115 7.19707L50.0738 5.67341L49.6368 6.6919C51.7252 5.5122 55.5638 4.15663 57.9585 4.88555C61.1692 5.85961 65.4157 7.74642 67.7594 10.2577C70.3414 13.0281 69.4021 16.3507 69.3454 19.7193L69.9674 19.7721L70.0132 20.1996C69.6758 21.1212 69.8132 22.5364 69.434 23.3762C68.769 24.8456 67.88 25.3359 67.3036 27.5063C66.7774 29.4926 66.6641 31.5544 66.7345 33.6009C64.2313 34.7427 61.6975 34.5162 59.1614 33.7317C59.1905 32.441 59.0302 31.1649 59.0735 29.874C59.1421 27.8417 59.8815 25.7662 59.4462 23.8957C59.4708 23.8096 60.0566 23.9617 60.272 23.8433C60.1275 25.0453 59.9504 26.5231 59.8377 27.7828C59.6787 29.5779 58.9828 33.2564 61.2548 33.6059C60.2397 31.3042 60.3957 28.7819 60.6611 26.3197C60.7886 25.1387 61.5215 23.0122 61.5285 22.0579C61.5295 21.9276 61.4305 21.6346 61.2662 21.7464C60.9787 22.1763 60.6451 23.6385 60.2745 23.8423L60.2754 23.8448Z" fill="white"></path>
</svg></svg></g></g><defs><clipPath id="SvgjsClipPath1070"><rect width="1000" height="1000" x="0" y="0" rx="500" ry="500"></rect></clipPath></defs></svg></g><g id="dark-icon"><svg xmlns="http://www.w3.org/2000/svg" version="1.1" xmlns:xlink="http://www.w3.org/1999/xlink" width="1000" height="1000"><g><g transform="matrix(11.904761904761905,0,0,11.904761904761905,0,53.571428571428555)"><svg xmlns="http://www.w3.org/2000/svg" version="1.1" xmlns:xlink="http://www.w3.org/1999/xlink" width="84" height="75"><svg id="icon" xmlns="http://www.w3.org/2000/svg" preserveAspectRatio="none" viewBox="0 0 84 75" fill="none">
    <path d="M47.6743 58.0627C47.8696 58.13 48.1255 58.1591 48.3184 58.0864C49.4594 57.6564 51.0222 53.8581 51.8457 52.7053C55.2303 47.9489 65.1333 43.3705 68.9737 49.9143C68.418 50.6575 67.642 49.6866 66.8587 49.4401C63.3327 48.3283 57.807 51.3818 55.5592 54.0855C53.0798 57.0675 51.98 64.2226 46.6714 61.1215C44.6137 59.9189 44.0796 57.9388 41.6356 57.061C36.3666 55.1751 34.0641 61.6977 30.6751 64.4897C31.1456 58.1375 37.5181 49.8404 44.2401 55.01C45.1661 55.7221 46.7333 57.7418 47.6743 58.0627Z" fill="white"></path>
    <path d="M45.0971 39.3856C47.0989 39.7695 48.3685 41.3058 48.4251 43.3542L48.8592 43.385C49.5986 45.6786 44.8166 47.9138 43.0322 47.188L43.3405 46.9586L43.2061 46.6119C42.5472 46.8852 42.7767 46.088 42.2905 46.3629L42.5656 45.537L42.1276 45.5017L42.0681 44.8197L41.4372 45.278L42.309 43.8992C41.8626 43.4947 41.3324 43.3883 40.7959 43.6959L41.9155 42.4233L41.4602 42.3049L41.7371 41.4783L40.8932 41.4111C41.7149 40.949 42.5077 39.7639 43.5478 40.1283L43.4914 39.7417L44.3354 39.809L44.1209 39.2799C44.4518 39.0864 44.7823 39.3311 45.095 39.3906L45.0971 39.3856Z" fill="white"></path>
    <path d="M35.2145 47.5897L35.5309 46.8556L34.7915 46.5412C36.8718 43.4731 39.9853 48.2 36.1247 48.3506C35.6874 48.1758 36.0828 47.2828 35.2162 47.589L35.2145 47.5897Z" fill="white"></path>
    <path d="M50.7843 40.0501L50.7465 39.6438C54.0457 36.2903 55.4187 43.3786 51.1117 40.8426L51.4148 40.1057L50.7843 40.0501Z" fill="white"></path>
    <path d="M60.2754 23.8448C60.647 20.7918 61.7747 17.9829 62.3369 14.96L60.932 16.3793C61.5791 14.3835 61.9198 7.61351 59.0837 7.4588C57.545 7.37387 52.0598 9.85992 50.6988 10.8633C50.2098 11.2225 49.9658 11.8014 49.4201 12.1326C48.5059 12.6867 47.3787 12.6524 46.7401 13.0129C46.1015 13.3734 44.1834 16.5874 43.4267 17.4532C41.4245 19.747 38.8393 22.0005 37.2537 24.707C36.3511 26.2474 35.6447 28.8516 34.785 30.5045C34.3788 31.2846 33.5049 31.9381 33.1713 32.8413C32.7778 33.9042 33.0848 35.0248 32.5801 36.2119C32.1697 37.1772 31.0155 38.2154 30.742 39.0575C30.1818 40.7922 29.7561 43.9631 29.2165 46.0565C28.3413 49.4604 29.064 51.7394 24.4986 52.3365C22.9975 52.5328 19.4078 51.19 18.0931 50.3508C16.5377 49.358 15.8283 48.2509 15.3543 46.4526C14.1703 41.9664 16.9664 36.0052 17.9883 31.4746C18.1236 30.872 18.917 27.7695 18.427 27.539C15.9595 29.2789 14.6198 32.0891 12.541 34.2079C10.1635 36.6312 10.0845 36.6322 6.90383 35.4596C5.23566 34.8456 3.79213 34.2337 2.86898 32.753C1.48179 30.5259 1.52081 28.1272 2.55895 25.7753C3.4577 25.3997 6.37213 27.9281 6.54333 28.9654C8.98788 26.3511 12.7305 23.1372 16.6192 24.4491C17.3022 24.6804 17.7917 25.1822 18.4168 25.4313C20.8659 26.4064 23.5664 26.9464 25.3875 28.9581L32.0207 20.4844C33.654 20.0199 34.326 18.477 35.4233 17.2982C37.4541 15.117 39.0473 13.3306 41.4808 11.6045C43.9142 9.87833 46.7216 8.20109 49.3935 6.79052L47.0115 7.19707L50.0738 5.67341L49.6368 6.6919C51.7252 5.5122 55.5638 4.15663 57.9585 4.88555C61.1692 5.85961 65.4157 7.74642 67.7594 10.2577C70.3414 13.0281 69.4021 16.3507 69.3454 19.7193L69.9674 19.7721L70.0132 20.1996C69.6758 21.1212 69.8132 22.5364 69.434 23.3762C68.769 24.8456 67.88 25.3359 67.3036 27.5063C66.7774 29.4926 66.6641 31.5544 66.7345 33.6009C64.2313 34.7427 61.6975 34.5162 59.1614 33.7317C59.1905 32.441 59.0302 31.1649 59.0735 29.874C59.1421 27.8417 59.8815 25.7662 59.4462 23.8957C59.4708 23.8096 60.0566 23.9617 60.272 23.8433C60.1275 25.0453 59.9504 26.5231 59.8377 27.7828C59.6787 29.5779 58.9828 33.2564 61.2548 33.6059C60.2397 31.3042 60.3957 28.7819 60.6611 26.3197C60.7886 25.1387 61.5215 23.0122 61.5285 22.0579C61.5295 21.9276 61.4305 21.6346 61.2662 21.7464C60.9787 22.1763 60.6451 23.6385 60.2745 23.8423L60.2754 23.8448Z" fill="white"></path>
</svg></svg></g></g></svg></g></svg>